<mxfile host="65bd71144e">
    <diagram id="cgJzlSkweh3feJ0BpHOi" name="Page-1">
        <mxGraphModel dx="540" dy="556" grid="1" gridSize="10" guides="1" tooltips="1" connect="1" arrows="1" fold="1" page="1" pageScale="1" pageWidth="827" pageHeight="1169" math="0" shadow="0">
            <root>
                <mxCell id="0"/>
                <mxCell id="1" parent="0"/>
                <mxCell id="2" value="&lt;font style=&quot;font-size: 24px;&quot;&gt;Client&lt;/font&gt;" style="rounded=0;whiteSpace=wrap;html=1;" vertex="1" parent="1">
                    <mxGeometry x="30" y="475" width="120" height="220" as="geometry"/>
                </mxCell>
                <mxCell id="3" value="" style="rounded=0;whiteSpace=wrap;html=1;fontSize=24;" vertex="1" parent="1">
                    <mxGeometry x="413.5" y="150" width="790" height="790" as="geometry"/>
                </mxCell>
                <mxCell id="4" value="" style="rounded=0;whiteSpace=wrap;html=1;" vertex="1" parent="1">
                    <mxGeometry x="1430" y="150" width="190" height="800" as="geometry"/>
                </mxCell>
                <mxCell id="5" value="User Registeration" style="rounded=0;whiteSpace=wrap;html=1;fontSize=24;" vertex="1" parent="1">
                    <mxGeometry x="645.25" y="210" width="326.5" height="90" as="geometry"/>
                </mxCell>
                <mxCell id="6" value="" style="endArrow=classic;html=1;fontSize=24;entryX=0;entryY=0.25;entryDx=0;entryDy=0;exitX=0.25;exitY=0;exitDx=0;exitDy=0;" edge="1" parent="1" source="2" target="5">
                    <mxGeometry width="50" height="50" relative="1" as="geometry">
                        <mxPoint x="640" y="680" as="sourcePoint"/>
                        <mxPoint x="690" y="630" as="targetPoint"/>
                        <Array as="points">
                            <mxPoint x="60" y="230"/>
                        </Array>
                    </mxGeometry>
                </mxCell>
                <mxCell id="7" value="" style="endArrow=classic;html=1;fontSize=24;entryX=0.5;entryY=0;entryDx=0;entryDy=0;exitX=0;exitY=0.5;exitDx=0;exitDy=0;" edge="1" parent="1" source="5" target="2">
                    <mxGeometry width="50" height="50" relative="1" as="geometry">
                        <mxPoint x="630" y="480" as="sourcePoint"/>
                        <mxPoint x="680" y="430" as="targetPoint"/>
                        <Array as="points">
                            <mxPoint x="90" y="255"/>
                        </Array>
                    </mxGeometry>
                </mxCell>
                <mxCell id="8" value="1. Send Register Parameter" style="text;html=1;strokeColor=none;fillColor=none;align=center;verticalAlign=middle;whiteSpace=wrap;rounded=0;fontSize=24;" vertex="1" parent="1">
                    <mxGeometry x="60" y="190" width="310" height="30" as="geometry"/>
                </mxCell>
                <mxCell id="9" value="2. Get Response (Fail/Success)" style="text;html=1;strokeColor=none;fillColor=none;align=center;verticalAlign=middle;whiteSpace=wrap;rounded=0;fontSize=24;" vertex="1" parent="1">
                    <mxGeometry x="90" y="260" width="245" height="70" as="geometry"/>
                </mxCell>
                <mxCell id="10" value="&lt;font style=&quot;font-size: 24px;&quot;&gt;Redis&lt;/font&gt;" style="rounded=0;whiteSpace=wrap;html=1;" vertex="1" parent="1">
                    <mxGeometry x="1465" y="253" width="120" height="220" as="geometry"/>
                </mxCell>
                <mxCell id="11" value="&lt;font style=&quot;font-size: 24px;&quot;&gt;MYSQL Database&lt;/font&gt;" style="rounded=0;whiteSpace=wrap;html=1;" vertex="1" parent="1">
                    <mxGeometry x="1465" y="620" width="120" height="220" as="geometry"/>
                </mxCell>
                <mxCell id="12" value="1. Send Parameter to add user" style="text;html=1;strokeColor=none;fillColor=none;align=center;verticalAlign=middle;whiteSpace=wrap;rounded=0;fontSize=24;" vertex="1" parent="1">
                    <mxGeometry x="1040" y="192" width="384" height="30" as="geometry"/>
                </mxCell>
                <mxCell id="13" value="Login User" style="rounded=0;whiteSpace=wrap;html=1;fontSize=24;" vertex="1" parent="1">
                    <mxGeometry x="645.25" y="360" width="326.5" height="90" as="geometry"/>
                </mxCell>
                <mxCell id="14" value="" style="endArrow=classic;html=1;fontSize=24;entryX=1;entryY=0.25;entryDx=0;entryDy=0;exitX=0;exitY=0.25;exitDx=0;exitDy=0;" edge="1" parent="1">
                    <mxGeometry width="50" height="50" relative="1" as="geometry">
                        <mxPoint x="645.2499999999998" y="420" as="sourcePoint"/>
                        <mxPoint x="150.00000000000023" y="567.5" as="targetPoint"/>
                        <Array as="points">
                            <mxPoint x="240" y="420.5"/>
                            <mxPoint x="240" y="567.5"/>
                        </Array>
                    </mxGeometry>
                </mxCell>
                <mxCell id="15" value="" style="endArrow=classic;html=1;fontSize=24;entryX=0;entryY=0.25;entryDx=0;entryDy=0;exitX=1;exitY=0.25;exitDx=0;exitDy=0;" edge="1" parent="1">
                    <mxGeometry width="50" height="50" relative="1" as="geometry">
                        <mxPoint x="149.99999999999977" y="545" as="sourcePoint"/>
                        <mxPoint x="645.2499999999998" y="397.5" as="targetPoint"/>
                        <Array as="points">
                            <mxPoint x="200" y="545"/>
                            <mxPoint x="200" y="398"/>
                        </Array>
                    </mxGeometry>
                </mxCell>
                <mxCell id="16" value="1. Send Login Parameter" style="text;html=1;strokeColor=none;fillColor=none;align=center;verticalAlign=middle;whiteSpace=wrap;rounded=0;fontSize=24;" vertex="1" parent="1">
                    <mxGeometry x="257" y="342" width="280" height="70" as="geometry"/>
                </mxCell>
                <mxCell id="17" value="2. Get Access Token (if success)" style="text;html=1;strokeColor=none;fillColor=none;align=center;verticalAlign=middle;whiteSpace=wrap;rounded=0;fontSize=24;" vertex="1" parent="1">
                    <mxGeometry x="274.5" y="419" width="245" height="70" as="geometry"/>
                </mxCell>
                <mxCell id="18" value="1. Retrieve user information to verify" style="text;html=1;strokeColor=none;fillColor=none;align=center;verticalAlign=middle;whiteSpace=wrap;rounded=0;fontSize=24;" vertex="1" parent="1">
                    <mxGeometry x="1164" y="530" width="260" height="70" as="geometry"/>
                </mxCell>
                <mxCell id="19" value="" style="endArrow=classic;html=1;fontSize=24;entryX=0;entryY=0.25;entryDx=0;entryDy=0;exitX=1;exitY=0.25;exitDx=0;exitDy=0;" edge="1" parent="1" source="13" target="11">
                    <mxGeometry width="50" height="50" relative="1" as="geometry">
                        <mxPoint x="880" y="490" as="sourcePoint"/>
                        <mxPoint x="930" y="440" as="targetPoint"/>
                        <Array as="points">
                            <mxPoint x="1240" y="383"/>
                            <mxPoint x="1240" y="675"/>
                        </Array>
                    </mxGeometry>
                </mxCell>
                <mxCell id="20" value="" style="endArrow=classic;html=1;fontSize=24;entryX=1;entryY=0.5;entryDx=0;entryDy=0;exitX=0;exitY=0.5;exitDx=0;exitDy=0;" edge="1" parent="1" source="11" target="13">
                    <mxGeometry width="50" height="50" relative="1" as="geometry">
                        <mxPoint x="880" y="490" as="sourcePoint"/>
                        <mxPoint x="930" y="440" as="targetPoint"/>
                        <Array as="points">
                            <mxPoint x="1230" y="730"/>
                            <mxPoint x="1230" y="405"/>
                        </Array>
                    </mxGeometry>
                </mxCell>
                <mxCell id="21" value="" style="endArrow=classic;html=1;fontSize=24;entryX=0.75;entryY=0;entryDx=0;entryDy=0;exitX=1;exitY=0.25;exitDx=0;exitDy=0;" edge="1" parent="1" source="5" target="11">
                    <mxGeometry width="50" height="50" relative="1" as="geometry">
                        <mxPoint x="880" y="490" as="sourcePoint"/>
                        <mxPoint x="930" y="440" as="targetPoint"/>
                        <Array as="points">
                            <mxPoint x="1410" y="233"/>
                            <mxPoint x="1410" y="520"/>
                            <mxPoint x="1555" y="520"/>
                        </Array>
                    </mxGeometry>
                </mxCell>
                <mxCell id="22" value="" style="endArrow=classic;html=1;fontSize=24;entryX=0;entryY=0.5;entryDx=0;entryDy=0;exitX=1;exitY=0;exitDx=0;exitDy=0;" edge="1" parent="1" source="13" target="10">
                    <mxGeometry width="50" height="50" relative="1" as="geometry">
                        <mxPoint x="880" y="490" as="sourcePoint"/>
                        <mxPoint x="930" y="440" as="targetPoint"/>
                    </mxGeometry>
                </mxCell>
                <mxCell id="23" value="2. Store access and refresh token" style="text;html=1;strokeColor=none;fillColor=none;align=center;verticalAlign=middle;whiteSpace=wrap;rounded=0;fontSize=24;" vertex="1" parent="1">
                    <mxGeometry x="990" y="326" width="384" height="30" as="geometry"/>
                </mxCell>
                <mxCell id="24" value="Refresh Token" style="rounded=0;whiteSpace=wrap;html=1;fontSize=24;" vertex="1" parent="1">
                    <mxGeometry x="645.25" y="539" width="326.5" height="90" as="geometry"/>
                </mxCell>
                <mxCell id="25" value="" style="endArrow=classic;html=1;fontSize=24;entryX=0;entryY=0.25;entryDx=0;entryDy=0;exitX=1;exitY=0.75;exitDx=0;exitDy=0;" edge="1" parent="1" source="2" target="24">
                    <mxGeometry width="50" height="50" relative="1" as="geometry">
                        <mxPoint x="780" y="630" as="sourcePoint"/>
                        <mxPoint x="830" y="580" as="targetPoint"/>
                        <Array as="points">
                            <mxPoint x="280" y="640"/>
                            <mxPoint x="280" y="560"/>
                        </Array>
                    </mxGeometry>
                </mxCell>
                <mxCell id="26" value="1. Send user id when access token expired in client side/ having authentication problem when calling other APIs" style="text;html=1;strokeColor=none;fillColor=none;align=center;verticalAlign=middle;whiteSpace=wrap;rounded=0;fontSize=24;" vertex="1" parent="1">
                    <mxGeometry x="278.5" y="525" width="345.5" height="125" as="geometry"/>
                </mxCell>
                <mxCell id="27" value="" style="endArrow=classic;html=1;fontSize=24;entryX=0;entryY=0.75;entryDx=0;entryDy=0;exitX=1;exitY=0.25;exitDx=0;exitDy=0;" edge="1" parent="1" source="24" target="10">
                    <mxGeometry width="50" height="50" relative="1" as="geometry">
                        <mxPoint x="780" y="580" as="sourcePoint"/>
                        <mxPoint x="830" y="530" as="targetPoint"/>
                        <Array as="points">
                            <mxPoint x="1050" y="562"/>
                            <mxPoint x="1050" y="420"/>
                        </Array>
                    </mxGeometry>
                </mxCell>
                <mxCell id="28" value="1. Get Refresh Token" style="text;html=1;strokeColor=none;fillColor=none;align=center;verticalAlign=middle;whiteSpace=wrap;rounded=0;fontSize=24;" vertex="1" parent="1">
                    <mxGeometry x="930" y="480" width="245" height="70" as="geometry"/>
                </mxCell>
            </root>
        </mxGraphModel>
    </diagram>
</mxfile>